<svg xmlns="http://www.w3.org/2000/svg" width="798" height="138" viewBox="0 0 798 138">
<g>
<path d="M 122.25 120.50 L 116.37 119.17 C101.96,115.90 87.15,105.41 78.82,92.58 C68.11,76.08 66.99,52.84 76.04,34.92 C82.89,21.36 95.51,10.55 110.54,5.40 C117.27,3.08 120.20,2.66 129.50,2.62 C137.32,2.59 142.23,3.09 146.50,4.38 C163.39,9.45 176.15,20.14 183.43,35.32 C188.52,45.93 190.00,52.10 190.00,62.65 C190.00,87.80 173.44,110.12 149.17,117.69 L 140.74 120.32 L 141.39 128.16 L 142.05 136.00 L 121.19 136.00 L 122.25 120.50 ZM 460.84 118.33 C459.93,118.09 458.90,116.75 458.56,115.36 C458.21,113.98 454.62,103.31 450.59,91.67 C431.16,35.54 426.00,20.32 426.00,19.17 C426.00,18.25 428.37,18.00 435.21,18.21 L 444.42 18.50 L 445.66 22.00 C446.34,23.92 451.72,40.25 457.62,58.28 C463.51,76.31 468.64,90.71 469.01,90.28 C469.38,89.85 470.70,86.12 471.94,82.00 C474.84,72.38 488.62,28.99 490.78,22.71 L 492.42 17.92 L 499.37 18.21 L 506.33 18.50 L 518.31 54.80 C524.90,74.77 530.60,90.75 530.98,90.30 C531.36,89.86 536.54,74.20 542.49,55.50 C548.44,36.80 553.70,20.71 554.19,19.75 C554.93,18.28 556.50,18.00 564.04,18.00 C568.97,18.00 572.98,18.34 572.95,18.75 C572.92,19.16 565.39,41.78 556.20,69.00 L 539.50 118.50 L 532.95 118.79 C529.47,118.95 527.21,119.28 525.39,118.54 C521.32,116.91 519.37,110.01 510.80,84.19 C504.73,65.94 499.48,51.00 499.13,51.00 C498.40,51.00 497.48,53.77 485.93,90.50 C481.43,104.80 477.30,117.06 476.75,117.75 C475.79,118.95 464.71,119.35 460.84,118.33 ZM 115.85 108.03 C123.53,110.35 123.79,109.91 124.22,94.22 L 124.50 83.94 L 111.82 73.22 C104.85,67.32 98.92,62.00 98.66,61.39 C97.76,59.34 100.48,55.51 103.02,55.24 C104.87,55.05 107.92,57.04 115.00,63.05 L 124.50 71.12 L 125.19 67.31 C125.57,65.21 125.91,56.43 125.94,47.79 C126.00,32.81 126.10,32.02 128.13,30.93 C129.61,30.14 130.93,30.10 132.48,30.81 C135.28,32.08 136.00,36.75 136.00,53.64 C136.00,60.44 136.25,66.00 136.55,66.00 C136.85,66.00 141.39,62.17 146.64,57.50 C156.36,48.85 158.64,47.78 161.43,50.57 C164.50,53.64 163.10,55.74 150.36,67.12 L 137.73 78.42 L 138.36 87.96 C138.71,93.21 138.99,100.14 138.99,103.38 L 139.00 109.25 L 142.25 108.62 C148.57,107.41 160.04,100.92 165.48,95.48 C176.35,84.60 181.74,67.92 179.11,53.22 C177.21,42.61 173.03,34.75 165.20,27.08 C150.91,13.09 130.43,8.38 112.72,15.00 C84.91,25.41 72.73,54.94 85.31,81.44 C90.83,93.07 103.85,104.40 115.85,108.03 ZM 268.00 118.69 C256.38,116.03 248.52,109.75 243.74,99.33 C241.87,95.24 241.53,92.73 241.51,83.00 C241.50,72.47 241.74,70.98 244.33,65.38 C247.86,57.73 253.74,51.91 261.50,48.36 C269.49,44.70 280.93,44.49 288.50,47.87 C299.72,52.87 304.98,61.66 305.78,76.73 L 306.27 85.96 L 282.39 86.23 L 258.50 86.50 L 258.82 89.50 C259.33,94.34 263.43,100.31 268.01,102.88 C275.57,107.13 284.30,106.76 300.80,101.48 C303.06,100.75 303.09,100.84 302.80,107.62 L 302.50 114.50 L 295.87 116.72 C287.54,119.50 275.30,120.37 268.00,118.69 ZM 691.25 118.52 C680.54,115.50 673.63,110.07 669.03,101.06 C663.66,90.53 664.17,74.08 670.23,62.73 C676.21,51.50 686.21,45.64 699.50,45.58 C719.07,45.50 730.00,57.85 730.00,80.05 L 730.00 86.00 L 683.00 86.00 L 683.00 88.54 C683.00,89.94 683.90,92.84 684.99,94.98 C690.38,105.54 704.10,108.66 720.41,103.04 C723.66,101.92 726.49,101.00 726.70,101.00 C726.92,101.00 726.96,104.04 726.80,107.75 L 726.50 114.50 L 719.80 116.74 C710.99,119.68 698.21,120.48 691.25,118.52 ZM 1.65 118.25 C1.25,117.59 0.63,34.70 0.93,21.25 L 1.00 18.00 L 67.00 18.00 L 67.00 33.00 L 18.00 33.00 L 18.00 59.96 L 39.25 60.23 L 60.50 60.50 L 60.50 74.50 L 39.27 74.77 L 18.04 75.04 L 17.77 96.77 L 17.50 118.50 L 9.83 118.79 C5.62,118.95 1.94,118.71 1.65,118.25 ZM 622.67 118.95 C620.01,118.51 615.62,117.35 612.92,116.37 L 608.00 114.60 L 608.00 107.80 C608.00,104.06 608.34,101.00 608.75,101.00 C609.16,101.01 612.65,102.12 616.50,103.48 C630.50,108.43 643.00,106.26 643.00,98.88 C643.00,94.62 639.66,92.03 629.16,88.15 C616.60,83.52 611.79,80.27 609.01,74.53 C607.19,70.76 606.86,68.83 607.34,64.76 C608.23,57.29 611.67,52.78 619.40,48.97 C625.77,45.84 626.10,45.79 637.19,46.21 C644.97,46.51 649.83,47.20 652.75,48.43 L 657.00 50.22 L 657.00 57.11 C657.00,60.90 656.89,64.00 656.75,64.00 C656.61,64.00 654.07,63.08 651.10,61.95 C635.79,56.13 621.21,59.78 625.16,68.46 C626.36,71.08 628.31,72.18 640.02,76.82 C650.86,81.11 654.74,83.68 657.43,88.36 C660.87,94.35 661.39,98.15 659.61,104.26 C657.22,112.49 651.51,116.88 640.55,118.91 C633.92,120.13 629.75,120.14 622.67,118.95 ZM 328.76 119.02 C326.16,118.55 321.77,117.42 319.01,116.50 L 314.00 114.84 L 314.00 107.92 C314.00,104.07 314.43,101.00 314.98,101.00 C315.52,101.00 319.31,102.12 323.41,103.50 C339.98,109.06 352.09,105.20 348.38,95.54 C347.64,93.63 342.82,91.05 333.36,87.48 C318.21,81.78 312.26,75.09 313.24,64.86 C314.20,54.83 322.62,47.53 334.90,46.09 C342.43,45.20 353.20,46.30 358.76,48.52 L 363.00 50.22 L 363.00 56.44 C363.00,59.87 362.75,62.91 362.45,63.22 C362.15,63.52 359.56,62.84 356.70,61.71 C352.91,60.21 349.10,59.63 342.66,59.57 C334.46,59.51 333.68,59.67 331.85,61.94 C329.47,64.87 330.08,68.69 333.31,71.20 C334.51,72.14 338.88,74.11 343.00,75.59 C360.64,81.91 366.00,87.24 365.99,98.45 C365.99,107.75 361.23,114.24 352.05,117.48 C346.82,119.33 334.84,120.12 328.76,119.02 ZM 398.00 118.91 C392.09,117.90 388.83,115.99 385.56,111.62 C383.65,109.06 383.46,107.11 383.00,84.68 L 382.50 60.50 L 370.00 59.90 L 370.00 47.10 L 382.50 46.50 L 382.78 36.89 L 383.07 27.28 L 391.03 26.35 C398.67,25.46 399.00,25.50 399.09,27.46 C399.14,28.58 399.28,30.62 399.40,32.00 C399.51,33.38 399.70,37.31 399.81,40.75 L 400.00 47.00 L 421.00 47.00 L 421.00 60.00 L 400.16 60.00 L 399.82 78.25 C399.63,88.29 399.84,97.97 400.29,99.76 C401.50,104.64 404.63,106.19 412.68,105.89 L 419.50 105.64 L 419.80 111.73 C420.08,117.69 420.03,117.83 417.30,118.37 C411.15,119.58 403.22,119.80 398.00,118.91 ZM 199.46 116.74 C199.19,116.05 199.09,100.19 199.24,81.49 L 199.50 47.50 L 207.25 47.21 C214.86,46.92 215.00,46.96 215.00,49.33 C215.00,50.66 215.28,53.17 215.63,54.90 L 216.26 58.06 L 219.63 54.12 C223.80,49.24 230.29,46.00 235.86,46.00 L 240.08 46.00 L 239.79 53.75 L 239.50 61.50 L 235.50 61.77 C229.03,62.20 227.24,62.85 223.47,66.16 C216.83,71.99 216.55,73.17 216.17,96.75 L 215.83 118.00 L 207.88 118.00 C202.43,118.00 199.79,117.61 199.46,116.74 ZM 580.24 82.75 L 580.50 47.50 L 588.75 47.21 L 597.00 46.92 L 597.00 118.00 L 579.97 118.00 ZM 777.75 110.92 C775.19,109.43 775.60,105.78 778.94,100.32 C785.39,89.78 788.20,75.16 786.01,63.55 C785.31,59.84 782.84,53.11 780.38,48.22 C775.41,38.32 775.02,35.75 778.25,34.35 C781.98,32.74 783.83,33.87 787.35,39.88 C799.20,60.09 799.73,83.17 788.80,103.00 C783.83,112.01 781.94,113.36 777.75,110.92 ZM 761.20 99.80 C759.35,97.95 759.74,95.84 763.04,89.74 C768.93,78.87 768.86,68.41 762.81,55.70 C759.03,47.77 759.54,45.50 765.11,45.50 C768.33,45.50 768.69,45.88 772.28,53.00 C778.74,65.81 779.11,78.45 773.39,91.00 C769.33,99.91 764.67,103.27 761.20,99.80 ZM 289.54 71.25 C288.57,65.96 285.89,61.74 282.45,60.07 C278.04,57.92 270.97,58.24 266.89,60.76 C263.16,63.07 259.00,69.46 259.00,72.89 C259.00,74.95 259.39,75.00 274.61,75.00 L 290.22 75.00 ZM 714.00 73.24 C714.00,63.25 705.76,56.70 695.95,58.90 C689.39,60.37 683.05,67.89 683.01,74.25 C683.00,74.66 689.97,75.00 698.50,75.00 C712.62,75.00 714.00,74.84 714.00,73.24 ZM 745.91 86.70 C745.06,84.83 745.14,83.62 746.28,81.39 C748.82,76.42 749.19,72.57 747.56,67.90 C745.40,61.71 745.55,58.28 748.00,57.50 C753.75,55.68 757.94,62.20 757.98,73.04 C758.01,82.04 754.91,88.36 750.26,88.81 C747.63,89.07 746.80,88.66 745.91,86.70 ZM 583.78 35.49 C577.16,31.78 577.27,22.98 583.98,19.51 C589.28,16.77 595.08,18.32 597.58,23.15 C599.66,27.18 599.34,29.60 596.25,33.02 C592.93,36.70 587.76,37.72 583.78,35.49 Z" fill="rgba(25,90,51,1)"/>
<path d="M 115.85 108.03 C103.85,104.40 90.83,93.07 85.31,81.44 C72.73,54.94 84.91,25.41 112.72,15.00 C130.43,8.38 150.91,13.09 165.20,27.08 C173.03,34.75 177.21,42.61 179.11,53.22 C181.74,67.92 176.35,84.60 165.48,95.48 C160.04,100.92 148.57,107.41 142.25,108.62 L 139.00 109.25 L 138.99 103.38 C138.99,100.14 138.71,93.21 138.36,87.96 L 137.73 78.42 L 150.36 67.12 C163.10,55.74 164.50,53.64 161.43,50.57 C158.64,47.78 156.36,48.85 146.64,57.50 C141.39,62.17 136.85,66.00 136.55,66.00 C136.25,66.00 136.00,60.44 136.00,53.64 C136.00,36.75 135.28,32.08 132.48,30.81 C130.93,30.10 129.61,30.14 128.13,30.93 C126.10,32.02 126.00,32.81 125.94,47.79 C125.91,56.43 125.57,65.21 125.19,67.31 L 124.50 71.12 L 115.00 63.05 C107.92,57.04 104.87,55.05 103.02,55.24 C100.48,55.51 97.76,59.34 98.66,61.39 C98.92,62.00 104.85,67.32 111.82,73.22 L 124.50 83.94 L 124.22 94.22 C123.79,109.91 123.53,110.35 115.85,108.03 Z" fill="rgba(171,208,102,1)"/>
</g>
</svg>